<svg xmlns="http://www.w3.org/2000/svg" width="1248" height="1248" viewBox="0 0 1248 1248" fill="none">
<path d="M322.539 118.036L341.019 119.177L325.885 129.748L330.372 147.468L315.618 136.364L300.028 146.175L306.036 128.911L291.738 117.124L310.371 117.504L317.215 100.469L322.539 118.036Z" fill="#182A4E" data-layer="Estrellas azules" />
<path d="M163.722 56.5675L182.202 57.7083L167.068 68.2793L171.555 85.9989L156.802 74.8956L141.211 84.7061L147.219 67.4427L132.922 55.655L151.554 56.0352L158.399 39L163.722 56.5675Z" fill="#F4F7FF" data-layer="Estrellas claras" />
<path d="M83.9682 435.372L102.448 436.513L87.3144 447.084L91.8014 464.804L77.0477 453.7L61.4574 463.511L67.4654 446.247L53.168 434.46L71.8002 434.84L78.6447 417.805L83.9682 435.372Z" fill="#182A4E" data-layer="Estrellas azules" />
<path d="M485.066 214.382L512.368 215.979L490.009 231.57L496.549 257.807L474.799 241.38L451.756 255.906L460.654 230.429L439.512 213.013L467.042 213.622L477.156 188.449L485.066 214.382Z" fill="#F4F7FF" data-layer="Estrellas claras" />
<path d="M310.457 405.194L202.922 188.984" stroke="#182A4E" stroke-width="8.74575" stroke-linecap="round" stroke-linejoin="round" data-layer="Destellos" />
<path d="M380.158 236.969L371.336 384.049" stroke="#182A4E" stroke-width="8.74575" stroke-linecap="round" stroke-linejoin="round" data-layer="Destellos" />
<path d="M133.531 357.625L255.059 440.9" stroke="#182A4E" stroke-width="8.74575" stroke-linecap="round" stroke-linejoin="round" data-layer="Destellos" />
<path d="M64.857 213.614L59.9898 183.879L82.1964 204.108L108.814 190.647L96.4938 218.025L117.712 239.243L88.1283 235.897L74.5914 262.895L68.5074 233.159L39 228.368L65.0091 213.538L64.857 213.614Z" fill="#F4F7FF" data-layer="Estrellas claras" />
<path d="M937.113 119.411L918.633 120.552L933.767 131.123L929.28 148.843L944.034 137.739L959.624 147.55L953.616 130.286L967.913 118.499L949.281 118.879L942.436 101.844L937.113 119.411Z" fill="#F4F7FF" data-layer="Estrellas claras" />
<path d="M1095.93 57.8644L1077.45 59.0052L1092.59 69.5761L1088.1 87.2958L1102.85 76.1925L1118.44 86.0029L1112.44 68.7396L1126.73 56.9518L1108.1 57.3321L1101.26 40.2969L1095.93 57.8644Z" fill="#182A4E" data-layer="Estrellas azules" />
<path d="M1175.68 436.665L1157.2 437.806L1172.34 448.377L1167.85 466.097L1182.6 454.993L1198.19 464.804L1192.19 447.54L1206.48 435.753L1187.85 436.133L1181.01 419.098L1175.68 436.665Z" fill="#182A4E" data-layer="Estrellas azules" />
<path d="M774.548 215.675L747.246 217.272L769.605 232.863L763.064 259.1L784.815 242.673L807.858 257.199L798.96 231.722L820.102 214.306L792.572 214.915L782.457 189.742L774.548 215.675Z" fill="#182A4E" data-layer="Estrellas azules" />
<path d="M949.18 406.486L1056.71 190.352" stroke="#182A4E" stroke-width="8.74575" stroke-linecap="round" stroke-linejoin="round" data-layer="Destellos" />
<path d="M879.48 238.344L888.302 385.348" stroke="#182A4E" stroke-width="8.74575" stroke-linecap="round" stroke-linejoin="round" data-layer="Destellos" />
<path d="M1126.08 359L1004.55 442.275" stroke="#182A4E" stroke-width="8.74575" stroke-linecap="round" stroke-linejoin="round" data-layer="Destellos" />
<path d="M1194.82 214.986L1199.69 185.25L1177.48 205.479L1150.87 192.018L1163.19 219.396L1141.97 240.614L1171.55 237.268L1185.09 264.266L1191.17 234.53L1220.68 229.739L1194.67 214.91L1194.82 214.986Z" fill="#F4F7FF" data-layer="Estrellas claras" />
<path d="M657.472 1123.86C597.697 1016.25 385.517 656.612 239.654 542.309C239.045 542.081 238.589 541.7 238.361 541.244C234.178 533.715 283.61 498.428 343.082 465.65C402.477 432.873 458.678 409.83 462.86 417.435C463.164 417.967 463.164 418.575 463.012 419.336C482.101 603.985 673.062 975.109 732.001 1082.8C743.257 1080.44 755.272 1085.61 761.128 1096.18L798.469 1163.94C800.75 1168.12 799.229 1173.3 795.123 1175.58L702.342 1226.76C698.159 1229.04 692.988 1227.52 690.706 1223.41L653.365 1155.65C647.51 1145 649.563 1132.15 657.548 1123.86H657.472Z" fill="#FFD15C" stroke="#182A4E" stroke-width="17.4915" stroke-linecap="round" stroke-linejoin="round" data-layer="Cornetas" />
<path d="M507 876.428C525.024 874.526 542.972 869.051 559.855 859.773C576.738 850.495 590.883 838.174 602.139 823.953" stroke="#182A4E" stroke-width="8.74575" stroke-linecap="round" stroke-linejoin="round" data-layer="Contornos" />
<path d="M659.648 1123.02C672.577 1120.2 685.277 1115.49 697.521 1108.8C709.765 1102.1 720.641 1093.66 729.919 1084.16" stroke="#182A4E" stroke-width="8.74575" stroke-linecap="round" stroke-linejoin="round" data-layer="Contornos" />
<path d="M238.797 540.088C277.354 527.083 314.847 510.733 352.796 489.819C393.559 467.308 428.085 443.276 460.559 415.746" stroke="#182A4E" stroke-width="17.4915" stroke-linecap="round" stroke-linejoin="round" data-layer="Contornos" />
<path d="M602.137 1123.86C661.912 1016.25 874.092 656.612 1019.96 542.309C1020.56 542.081 1021.02 541.7 1021.25 541.244C1025.43 533.715 975.999 498.428 916.528 465.65C857.133 432.873 800.932 409.83 796.749 417.435C796.445 417.967 796.445 418.575 796.597 419.336C777.508 603.985 586.547 975.109 527.608 1082.8C516.353 1080.44 504.337 1085.61 498.481 1096.18L461.14 1163.94C458.859 1168.12 460.38 1173.3 464.486 1175.58L557.267 1226.76C561.45 1229.04 566.622 1227.52 568.903 1223.41L606.244 1155.65C612.1 1145 610.046 1132.15 602.061 1123.86H602.137Z" fill="#FFD15C" stroke="#182A4E" stroke-width="17.4915" stroke-linecap="round" stroke-linejoin="round" data-layer="Cornetas" />
<path d="M752.502 876.428C734.478 874.526 716.53 869.051 699.647 859.773C682.764 850.495 668.619 838.174 657.363 823.953" stroke="#182A4E" stroke-width="8.74575" stroke-linecap="round" stroke-linejoin="round" data-layer="Contornos" />
<path d="M599.969 1123.02C587.041 1120.2 574.341 1115.49 562.097 1108.8C549.852 1102.1 538.977 1093.66 529.699 1084.16" stroke="#182A4E" stroke-width="8.74575" stroke-linecap="round" stroke-linejoin="round" data-layer="Contornos" />
<path d="M1020.73 540.088C982.173 527.083 944.681 510.733 906.732 489.819C865.969 467.308 831.442 443.276 798.969 415.746" stroke="#182A4E" stroke-width="15.9705" stroke-linecap="round" stroke-linejoin="round" data-layer="Contornos" />
</svg>